# xmcd
#
# Track frame offsets:
#	150
#	13399
#	24790
#	38668
#	59753
#	73221
#	86307
#	101235
#	113037
#	124257
#	137149
#	151930
#	166945
#	182090
#
# Disc length: 2543 seconds
#
# Revision: 1
# Processed by: cddbd v1.5.2PL0 Copyright (c) Steve Scherf et al.
# Submitted via: audiograbber 1.83.01
#
DISCID=bc09ed0e
DTITLE=Elvis Presley - Elvis Country (I'm 10,000 Years Old) 40th Anniversary Le
DTITLE=gacy Edition CD2
DYEAR=2012
DGENRE=Country
TTITLE0=Love Letters
TTITLE1=When I'm Over You
TTITLE2=If I Were You
TTITLE3=Got My Mojo Working/Keep Your Hands Off Of It
TTITLE4=Heart Of Rome
TTITLE5=Only Believe
TTITLE6=This Is Our Dance
TTITLE7=Cindy, Cindy
TTITLE8=I'll Never Know
TTITLE9=It Ain't No Big Thing (But It's Growing)
TTITLE10=Life
TTITLE11=The Sound Of Your Cry
TTITLE12=Sylvia
TTITLE13=Rags To Riches
EXTD=
EXTT0=
EXTT1=
EXTT2=
EXTT3=
EXTT4=
EXTT5=
EXTT6=
EXTT7=
EXTT8=
EXTT9=
EXTT10=
EXTT11=
EXTT12=
EXTT13=
PLAYORDER=
